HIERARCHY
ROOT Hips
{
	OFFSET 0.000000 71.427986 0.000000
	CHANNELS 6 Xposition Yposition Zposition Xrotation Yrotation Zrotation
	JOINT Pelvis
	{
		OFFSET 0.000000 0.000000 0.000000
		CHANNELS 3 Xrotation Yrotation Zrotation
		JOINT LeftUpLeg
		{
			OFFSET 6.797100 -2.508499 -1.318700
			CHANNELS 3 Xrotation Yrotation Zrotation
			JOINT LeftLeg
			{
				OFFSET 0.069008 -29.241863 0.690200
				CHANNELS 3 Xrotation Yrotation Zrotation
				JOINT LeftFoot
				{
					OFFSET -0.069008 -29.568123 -0.266800
					CHANNELS 3 Xrotation Yrotation Zrotation
					JOINT LeftToeBase
					{
						OFFSET 3.145500 -8.631000 16.059900
						CHANNELS 3 Xrotation Yrotation Zrotation
						End Site
						{
							OFFSET 0.000000 18.501587 0.000000
						}
					}
				}
			}
			JOINT Left_ShortSleeve
			{
				OFFSET 0.265923 -10.480953 1.153800
				CHANNELS 3 Xrotation Yrotation Zrotation
				End Site
				{
					OFFSET 1.725763 19.823879 0.000000
				}
			}
		}
		JOINT RightUpLeg
		{
			OFFSET -6.797100 -2.508499 -1.318700
			CHANNELS 3 Xrotation Yrotation Zrotation
			JOINT RightLeg
			{
				OFFSET -0.082453 -29.241932 0.688000
				CHANNELS 3 Xrotation Yrotation Zrotation
				JOINT RightFoot
				{
					OFFSET 0.082453 -29.568058 -0.264600
					CHANNELS 3 Xrotation Yrotation Zrotation
					JOINT RightToeBase
					{
						OFFSET -3.115300 -8.682800 16.113400
						CHANNELS 3 Xrotation Yrotation Zrotation
						End Site
						{
							OFFSET 0.000000 18.567114 0.000000
						}
					}
				}
			}
			JOINT Right_ShortSleeve
			{
				OFFSET -0.265923 -10.480953 1.153800
				CHANNELS 3 Xrotation Yrotation Zrotation
				End Site
				{
					OFFSET -1.725766 19.823910 0.000000
				}
			}
		}
	}
	JOINT Spine
	{
		OFFSET 0.000000 13.368103 0.470500
		CHANNELS 3 Xrotation Yrotation Zrotation
		JOINT Spine1
		{
			OFFSET 0.147000 13.837402 0.538800
			CHANNELS 3 Xrotation Yrotation Zrotation
			JOINT Spine2
			{
				OFFSET 0.168000 16.242897 -1.435500
				CHANNELS 3 Xrotation Yrotation Zrotation
				JOINT Neck
				{
					OFFSET 0.217200 18.631500 -1.679100
					CHANNELS 3 Xrotation Yrotation Zrotation
					JOINT Head
					{
						OFFSET 0.000000 6.599396 1.385900
						CHANNELS 3 Xrotation Yrotation Zrotation
						JOINT Hat
						{
							OFFSET -0.532200 27.220596 -10.096100
							CHANNELS 3 Xrotation Yrotation Zrotation
							End Site
							{
								OFFSET 0.000000 22.029861 0.000000
							}
						}
						JOINT HairD
						{
							OFFSET -10.777400 17.437393 -1.325900
							CHANNELS 3 Xrotation Yrotation Zrotation
							JOINT HairD1
							{
								OFFSET -3.290299 -11.051193 1.062200
								CHANNELS 3 Xrotation Yrotation Zrotation
								End Site
								{
									OFFSET 0.000000 11.579437 0.000000
								}
							}
						}
						JOINT HairB
						{
							OFFSET -10.777400 17.437393 1.467900
							CHANNELS 3 Xrotation Yrotation Zrotation
							JOINT HairB1
							{
								OFFSET -1.561200 -12.956299 3.590200
								CHANNELS 3 Xrotation Yrotation Zrotation
								End Site
								{
									OFFSET 0.000000 13.534866 0.000000
								}
							}
						}
						JOINT HairA
						{
							OFFSET 9.713100 17.437393 1.467900
							CHANNELS 3 Xrotation Yrotation Zrotation
							JOINT HairA1
							{
								OFFSET 1.561200 -12.956299 3.590200
								CHANNELS 3 Xrotation Yrotation Zrotation
								End Site
								{
									OFFSET 0.000000 13.534866 0.000000
								}
							}
						}
						JOINT HairC
						{
							OFFSET 9.713100 17.437393 -1.325900
							CHANNELS 3 Xrotation Yrotation Zrotation
							JOINT HairC1
							{
								OFFSET 3.290300 -11.051193 1.062200
								CHANNELS 3 Xrotation Yrotation Zrotation
								End Site
								{
									OFFSET 0.000000 11.579437 0.000000
								}
							}
						}
					}
				}
				JOINT LeftShoulder
				{
					OFFSET 5.101800 15.108002 -2.763700
					CHANNELS 3 Xrotation Yrotation Zrotation
					JOINT LeftArm
					{
						OFFSET 9.825497 2.506317 -1.597400
						CHANNELS 3 Xrotation Yrotation Zrotation
						JOINT LeftForeArm
						{
							OFFSET 21.966244 0.000000 0.000000
							CHANNELS 3 Xrotation Yrotation Zrotation
							JOINT LeftHand
							{
								OFFSET 33.879036 0.000000 0.000000
								CHANNELS 3 Xrotation Yrotation Zrotation
								JOINT LeftHandThumb1
								{
									OFFSET 6.715286 -2.359680 3.363841
									CHANNELS 3 Xrotation Yrotation Zrotation
									JOINT LeftHandThumb2
									{
										OFFSET 2.507072 -1.447464 1.447461
										CHANNELS 3 Xrotation Yrotation Zrotation
										JOINT LeftHandThumb3
										{
											OFFSET 2.898338 -1.673355 1.673357
											CHANNELS 3 Xrotation Yrotation Zrotation
											End Site
											{
												OFFSET -0.295959 3.727692 -0.131651
											}
										}
									}
								}
								JOINT LeftHandIndex1
								{
									OFFSET 14.190811 -0.254547 3.840278
									CHANNELS 3 Xrotation Yrotation Zrotation
									JOINT LeftHandIndex2
									{
										OFFSET 3.551727 0.000000 -0.000000
										CHANNELS 3 Xrotation Yrotation Zrotation
										JOINT LeftHandIndex3
										{
											OFFSET 2.894196 0.000000 0.000000
											CHANNELS 3 Xrotation Yrotation Zrotation
											End Site
											{
												OFFSET -1.000603 2.690872 0.366626
											}
										}
									}
								}
								JOINT LeftHandMiddle1
								{
									OFFSET 13.776489 0.000000 0.000000
									CHANNELS 3 Xrotation Yrotation Zrotation
									JOINT LeftHandMiddle2
									{
										OFFSET 3.438232 0.000000 0.000000
										CHANNELS 3 Xrotation Yrotation Zrotation
										JOINT LeftHandMiddle3
										{
											OFFSET 3.691551 0.000000 0.000000
											CHANNELS 3 Xrotation Yrotation Zrotation
											End Site
											{
												OFFSET -1.082298 3.499527 0.457670
											}
										}
									}
								}
								JOINT LeftHandRing1
								{
									OFFSET 13.966164 -0.268127 -3.067488
									CHANNELS 3 Xrotation Yrotation Zrotation
									JOINT LeftHandRing2
									{
										OFFSET 3.162567 0.000000 0.000000
										CHANNELS 3 Xrotation Yrotation Zrotation
										JOINT LeftHandRing3
										{
											OFFSET 3.324348 0.000000 0.000000
											CHANNELS 3 Xrotation Yrotation Zrotation
											End Site
											{
												OFFSET -0.861900 3.184998 0.405154
											}
										}
									}
								}
								JOINT LeftHandPinky1
								{
									OFFSET 13.131393 -0.168503 -5.746925
									CHANNELS 3 Xrotation Yrotation Zrotation
									JOINT LeftHandPinky2
									{
										OFFSET 2.849182 0.000000 0.000000
										CHANNELS 3 Xrotation Yrotation Zrotation
										JOINT LeftHandPinky3
										{
											OFFSET 2.805038 0.000000 0.000000
											CHANNELS 3 Xrotation Yrotation Zrotation
											End Site
											{
												OFFSET -0.882500 2.642609 0.325652
											}
										}
									}
								}
							}
							JOINT Left_Sleeve
							{
								OFFSET 6.592125 -0.646545 0.805568
								CHANNELS 3 Xrotation Yrotation Zrotation
								End Site
								{
									OFFSET -0.000179 20.275787 -0.000000
								}
							}
						}
					}
				}
				JOINT RightShoulder
				{
					OFFSET -5.731700 15.108002 -2.763700
					CHANNELS 3 Xrotation Yrotation Zrotation
					JOINT RightArm
					{
						OFFSET -9.825497 2.506317 -1.597400
						CHANNELS 3 Xrotation Yrotation Zrotation
						JOINT RightForeArm
						{
							OFFSET -21.966242 0.000000 0.000000
							CHANNELS 3 Xrotation Yrotation Zrotation
							JOINT RightHand
							{
								OFFSET -33.879032 0.000000 0.000000
								CHANNELS 3 Xrotation Yrotation Zrotation
								JOINT RightHandThumb1
								{
									OFFSET -6.715286 -2.359680 3.363841
									CHANNELS 3 Xrotation Yrotation Zrotation
									JOINT RightHandThumb2
									{
										OFFSET -2.507072 -1.447464 1.447461
										CHANNELS 3 Xrotation Yrotation Zrotation
										JOINT RightHandThumb3
										{
											OFFSET -2.898338 -1.673355 1.673357
											CHANNELS 3 Xrotation Yrotation Zrotation
											End Site
											{
												OFFSET 0.295959 3.727692 -0.131651
											}
										}
									}
								}
								JOINT RightHandIndex1
								{
									OFFSET -14.190811 -0.254547 3.840278
									CHANNELS 3 Xrotation Yrotation Zrotation
									JOINT RightHandIndex2
									{
										OFFSET -3.551727 0.000000 -0.000000
										CHANNELS 3 Xrotation Yrotation Zrotation
										JOINT RightHandIndex3
										{
											OFFSET -2.894196 0.000000 0.000000
											CHANNELS 3 Xrotation Yrotation Zrotation
											End Site
											{
												OFFSET 1.000603 2.690872 0.366626
											}
										}
									}
								}
								JOINT RightHandMiddle1
								{
									OFFSET -13.776489 0.000000 0.000000
									CHANNELS 3 Xrotation Yrotation Zrotation
									JOINT RightHandMiddle2
									{
										OFFSET -3.438232 0.000000 0.000000
										CHANNELS 3 Xrotation Yrotation Zrotation
										JOINT RightHandMiddle3
										{
											OFFSET -3.691551 0.000000 0.000000
											CHANNELS 3 Xrotation Yrotation Zrotation
											End Site
											{
												OFFSET 1.082298 3.499527 0.457670
											}
										}
									}
								}
								JOINT RightHandRing1
								{
									OFFSET -13.966164 -0.268127 -3.067488
									CHANNELS 3 Xrotation Yrotation Zrotation
									JOINT RightHandRing2
									{
										OFFSET -3.162567 0.000000 0.000000
										CHANNELS 3 Xrotation Yrotation Zrotation
										JOINT RightHandRing3
										{
											OFFSET -3.324348 0.000000 0.000000
											CHANNELS 3 Xrotation Yrotation Zrotation
											End Site
											{
												OFFSET 0.861900 3.184998 0.405154
											}
										}
									}
								}
								JOINT RightHandPinky1
								{
									OFFSET -13.131393 -0.168503 -5.746925
									CHANNELS 3 Xrotation Yrotation Zrotation
									JOINT RightHandPinky2
									{
										OFFSET -2.849182 0.000000 0.000000
										CHANNELS 3 Xrotation Yrotation Zrotation
										JOINT RightHandPinky3
										{
											OFFSET -2.805038 0.000000 0.000000
											CHANNELS 3 Xrotation Yrotation Zrotation
											End Site
											{
												OFFSET 0.882500 2.642609 0.325652
											}
										}
									}
								}
							}
							JOINT Right_Sleeve
							{
								OFFSET -6.592125 -0.646545 0.805568
								CHANNELS 3 Xrotation Yrotation Zrotation
								End Site
								{
									OFFSET 0.000179 20.275787 -0.000000
								}
							}
						}
					}
				}
				JOINT Bind_Right_JacketString
				{
					OFFSET -3.534800 11.969597 7.200700
					CHANNELS 3 Xrotation Yrotation Zrotation
					JOINT Bind_Right_JacketString1
					{
						OFFSET -0.319900 -6.102600 2.794100
						CHANNELS 3 Xrotation Yrotation Zrotation
						End Site
						{
							OFFSET 0.000000 6.719452 0.000000
						}
					}
				}
				JOINT Bind_Left_JacketString
				{
					OFFSET 2.904800 11.969597 7.200700
					CHANNELS 3 Xrotation Yrotation Zrotation
					JOINT Bind_Left_JacketString1
					{
						OFFSET 0.364800 -5.904503 3.186800
						CHANNELS 3 Xrotation Yrotation Zrotation
						End Site
						{
							OFFSET 0.000000 6.719513 0.000000
						}
					}
				}
				JOINT HairE
				{
					OFFSET 5.915200 17.612701 -11.592200
					CHANNELS 3 Xrotation Yrotation Zrotation
					JOINT HairE1
					{
						OFFSET 0.289200 -7.171898 -1.284500
						CHANNELS 3 Xrotation Yrotation Zrotation
						End Site
						{
							OFFSET 0.000000 7.291756 0.000000
						}
					}
				}
				JOINT HairF
				{
					OFFSET -0.864800 17.612701 -11.592200
					CHANNELS 3 Xrotation Yrotation Zrotation
					JOINT HairF1
					{
						OFFSET 0.000000 -14.087097 -2.127501
						CHANNELS 3 Xrotation Yrotation Zrotation
						End Site
						{
							OFFSET 0.000000 14.246841 0.000000
						}
					}
				}
				JOINT HairG
				{
					OFFSET -8.087700 17.612701 -11.592200
					CHANNELS 3 Xrotation Yrotation Zrotation
					JOINT HairG1
					{
						OFFSET -0.293600 -6.081398 -0.910100
						CHANNELS 3 Xrotation Yrotation Zrotation
						End Site
						{
							OFFSET 0.000000 6.156120 0.000000
						}
					}
				}
			}
		}
	}
	JOINT Pouch
	{
		OFFSET 0.000000 4.394501 10.847300
		CHANNELS 3 Xrotation Yrotation Zrotation
		End Site
		{
			OFFSET 0.000000 21.880577 0.000000
		}
	}
	JOINT Bag
	{
		OFFSET -13.229000 4.813004 -0.593300
		CHANNELS 3 Xrotation Yrotation Zrotation
		End Site
		{
			OFFSET 0.000000 21.880577 0.000000
		}
	}
	JOINT OccupyGuyFacialAnim_Joint
	{
		OFFSET 1.000000 -70.206398 -1.655000
		CHANNELS 3 Xrotation Yrotation Zrotation
		End Site
		{
			OFFSET 0.000000 21.880577 0.000000
		}
	}
}
MOTION
Frames: 5
Frame Time: 0.033333
-0.461530 63.198433 1.207276 3.734449 -11.620654 6.975492 -0.000000 -0.000001 0.000001 -51.337167 3.220149 16.985477 81.152380 8.162021 -0.106113 -13.474639 1.683885 -10.191458 0.000002 0.000000 0.000000 0.000002 0.000000 -0.000000 -33.933756 0.860212 14.883047 49.386270 -2.911479 -0.683884 -17.029024 3.905578 -17.030249 0.000000 -0.000000 -0.000000 0.000002 -0.000000 -0.000001 18.272832 0.252957 -1.501762 11.433154 0.071945 -0.147246 11.433135 0.057928 -0.146315 5.688372 -3.456092 0.121829 14.930775 -21.796261 14.028663 0.000001 -0.000003 0.000001 0.000001 -0.000003 0.000001 0.000001 -0.000003 0.000001 0.000001 -0.000003 0.000001 0.000001 0.000001 -0.000001 0.000001 -0.000003 0.000001 0.000001 0.000001 -0.000001 0.000001 -0.000003 0.000001 0.000001 -0.000003 0.000001 -0.551410 -15.858465 -20.049139 -2.336109 -5.880462 -37.763908 -0.000013 -35.642683 -0.000020 45.655095 -6.589043 -24.150415 -0.266450 4.548710 10.792701 14.081239 6.218288 10.788951 -0.000001 -0.000001 -0.000000 0.204027 3.652466 -14.856493 0.530659 2.438273 -24.552520 0.000000 0.000002 -0.000002 1.303312 7.387704 -16.322371 0.454974 2.265469 -22.708576 0.000000 0.000000 -0.000003 1.739696 8.580051 -17.229191 1.308147 3.691260 -39.016759 -0.000000 0.000000 -0.000003 0.758055 5.168022 -23.679897 0.713247 2.803361 -28.544155 -0.000001 -0.000001 -0.000001 -0.000001 0.000000 0.000001 0.054344 9.586681 19.572033 -18.872436 32.979654 44.637113 0.000007 33.705720 -0.000038 18.644813 2.012415 19.312968 -6.439872 1.666965 -14.228002 17.752495 -20.830532 7.631017 0.000000 0.000000 0.000001 -1.315358 3.015272 14.433197 0.617904 -2.320004 29.823761 0.000001 0.000000 0.000002 -1.183817 0.855426 17.866358 1.041080 -2.936761 39.031956 -0.000000 0.000002 -0.000004 -0.099486 -2.403331 15.770227 1.477870 -3.404880 46.915893 0.000000 -0.000000 0.000001 -12.813797 -11.028499 13.057097 1.001227 -2.886968 38.247068 0.000002 0.000004 0.000004 0.000003 -0.000000 0.000001 0.000001 0.000000 0.000001 0.000005 0.000000 0.000001 0.000001 0.000000 0.000001 0.000001 0.000000 0.000001 0.000001 0.000000 0.000001 0.000005 0.000000 0.000001 0.000001 0.000000 0.000001 0.000001 0.000000 0.000001 0.000001 0.000000 0.000001 0.000005 0.000000 0.000001 -0.000000 -0.000001 0.000001 -0.000000 -0.000001 0.000001 -0.000000 -0.000001 0.000001 
-0.856221 64.538651 -4.211631 3.908819 -10.612476 6.169571 0.000000 -0.000001 0.000000 -44.818906 5.348607 17.232789 82.895875 9.329719 -0.356710 -13.657950 1.899634 -11.201127 0.000000 0.000001 -0.000001 0.000001 -0.000000 0.000001 -33.573815 0.118558 15.177987 38.084479 0.167639 0.766123 -8.135733 1.727535 -18.635164 -0.000000 0.000000 0.000000 -0.000002 0.000000 -0.000003 17.737066 -0.006087 -0.466011 11.220147 -0.016043 0.131749 11.220123 -0.032901 0.140265 6.170645 -3.365511 0.025984 16.809458 -21.498546 13.857171 0.000001 0.000001 0.000001 0.000001 0.000001 0.000001 0.000001 0.000001 0.000000 0.000001 0.000001 0.000000 0.000002 0.000001 -0.000004 0.000001 0.000001 0.000000 0.000002 0.000001 -0.000004 0.000001 0.000001 0.000001 0.000001 0.000001 0.000001 -0.553267 -15.960779 -19.995153 -3.933881 -2.330798 -42.353781 0.000000 -34.259768 -0.000003 51.093490 -2.614997 -14.694281 -0.266451 4.548708 10.792698 10.877396 -1.517866 14.554464 -0.000000 0.000001 0.000000 0.478575 3.725954 -9.878967 0.536447 2.450878 -24.688190 0.000001 0.000001 -0.000003 0.495542 5.410227 -9.450558 0.486802 2.339969 -23.500164 -0.000001 0.000002 -0.000003 0.395122 6.893157 -4.184623 1.446738 3.855666 -41.122182 -0.000002 0.000000 0.000001 -0.318569 2.012760 -9.190878 0.833783 3.014161 -30.919283 0.000000 -0.000001 -0.000003 0.000000 0.000000 0.000002 0.037721 10.641818 18.474516 -28.771339 21.780686 54.887725 -0.000008 28.738311 0.000007 15.492990 5.044822 9.030808 -6.439871 1.666964 -14.228005 18.334424 -22.020354 8.436740 -0.000001 -0.000001 0.000001 -1.147254 0.276424 19.724043 0.641120 -2.360009 30.392364 0.000001 0.000002 0.000001 -0.399059 -1.845062 19.775380 1.140940 -3.055665 40.942070 0.000001 -0.000001 -0.000003 0.210454 -3.524271 18.342652 1.528884 -3.451813 47.769155 0.000004 -0.000001 0.000002 -11.910006 -11.700710 15.340118 1.067747 -2.969321 39.549572 -0.000005 -0.000000 -0.000005 0.000001 0.000003 -0.000000 -0.000003 -0.000000 -0.000000 -0.000003 -0.000000 -0.000001 -0.000003 -0.000000 -0.000000 -0.000003 -0.000000 -0.000000 -0.000003 -0.000000 -0.000000 -0.000003 -0.000000 -0.000000 -0.000003 -0.000000 -0.000000 -0.000003 -0.000000 -0.000000 -0.000003 -0.000000 -0.000000 -0.000003 -0.000000 -0.000000 0.000000 -0.000001 0.000000 0.000000 -0.000001 0.000000 0.000000 -0.000001 0.000000 
-1.360424 65.737991 -9.981724 5.155260 -8.553160 5.468737 0.000000 0.000001 -0.000000 -38.522503 6.453405 15.886916 79.865197 3.862757 -0.990526 -13.033823 2.069840 -12.260230 -0.000002 -0.000000 0.000000 -0.000002 -0.000000 -0.000000 -34.258989 -0.343426 15.177642 26.528853 1.783455 2.091195 -2.733731 0.042788 -16.430587 -0.000000 0.000000 -0.000000 0.000002 0.000001 -0.000002 16.229477 0.693812 0.165629 10.749779 0.165213 0.207569 10.750123 0.148353 0.211003 6.570812 -3.484805 0.156350 19.965744 -21.868925 15.205085 -0.000001 -0.000001 -0.000001 -0.000001 -0.000001 -0.000001 -0.000001 -0.000001 -0.000000 -0.000001 -0.000001 0.000002 -0.000001 0.000000 0.000002 -0.000001 -0.000001 0.000002 -0.000001 0.000000 0.000002 -0.000001 -0.000001 -0.000001 -0.000001 -0.000001 -0.000001 -0.552403 -15.294525 -20.584821 -6.900652 -1.337676 -44.694446 -0.000000 -33.422687 0.000012 43.982163 -1.210408 -15.258696 -0.266451 4.548713 10.792700 8.444076 -8.117069 17.946635 -0.000000 0.000001 0.000003 -0.007608 1.564374 -4.134067 0.497412 2.364241 -23.759346 0.000001 0.000000 -0.000000 0.059529 2.142268 -0.972968 0.520660 2.416321 -24.316489 -0.000000 0.000001 -0.000001 -0.137878 3.546408 7.455957 1.738007 4.165023 -45.285110 0.000001 0.000001 -0.000001 -0.002689 -3.032474 7.611699 0.975268 3.238352 -33.512893 -0.000001 -0.000001 0.000003 -0.000001 -0.000000 -0.000001 0.115092 10.049229 18.158367 -35.916632 9.147182 62.706949 0.000001 25.388080 -0.000002 7.905571 -5.625598 1.851873 -6.439874 1.666965 -14.228000 15.562470 -15.858202 4.578616 0.000002 -0.000001 -0.000000 -1.100965 0.026611 20.266677 0.600024 -2.288580 29.379352 -0.000000 -0.000000 0.000002 -0.688206 -1.706600 24.806943 1.134335 -3.048039 40.818003 0.000003 -0.000000 -0.000001 0.344311 -3.934365 23.695062 1.621240 -3.533282 49.284989 -0.000001 -0.000001 0.000003 -6.673247 -11.840857 16.808155 1.233408 -3.158950 42.647787 -0.000001 0.000000 -0.000005 -0.000000 0.000001 0.000000 -0.000003 0.000000 0.000000 -0.000003 -0.000001 0.000000 -0.000003 0.000000 0.000000 -0.000003 0.000000 0.000000 -0.000003 0.000000 0.000000 -0.000003 -0.000001 0.000000 -0.000003 0.000000 0.000000 -0.000003 0.000000 0.000000 -0.000003 0.000000 0.000000 -0.000003 -0.000001 0.000000 0.000000 0.000001 -0.000000 0.000000 0.000001 -0.000000 0.000000 0.000001 -0.000000 
-1.953717 66.738785 -15.728766 7.164351 -6.145502 5.108424 -0.000000 0.000000 -0.000000 -32.314424 6.593422 13.067111 72.673971 0.884074 -1.212020 -15.413111 2.748714 -13.723867 -0.000001 0.000001 -0.000001 0.000001 0.000001 -0.000002 -37.674125 -1.212359 14.540745 21.158985 1.928304 2.631793 -5.719789 -0.174651 -9.534653 -0.000000 0.000000 -0.000000 0.000001 0.000001 -0.000003 13.911546 1.615805 0.503256 10.492092 0.409986 0.087365 10.493244 0.399027 0.081817 6.917425 -3.712037 0.292924 21.673531 -22.747593 15.827000 -0.000001 -0.000001 -0.000000 -0.000001 -0.000001 -0.000000 -0.000001 -0.000001 0.000001 -0.000001 -0.000001 0.000001 -0.000000 -0.000002 -0.000000 -0.000001 -0.000001 0.000001 -0.000000 -0.000002 -0.000000 -0.000001 -0.000001 -0.000000 -0.000001 -0.000001 -0.000000 -0.353867 -13.939839 -19.893978 -10.243324 -2.450941 -46.583700 0.000004 -33.930997 0.000000 33.647923 -2.240558 -23.059021 -0.266452 4.548707 10.792700 6.776645 -8.282020 19.591571 -0.000000 -0.000000 -0.000001 -0.029383 0.424208 -2.694991 0.463826 2.286486 -22.931450 0.000001 0.000001 0.000000 0.143668 0.141287 2.060956 0.532795 2.442944 -24.602656 0.000002 0.000000 0.000001 0.023473 1.908473 12.416642 1.951728 4.365715 -48.157803 0.000001 0.000001 0.000000 1.017779 -5.530737 16.079122 1.086430 3.399978 -35.432723 0.000002 -0.000001 -0.000002 0.000001 -0.000002 -0.000000 0.248670 8.253592 18.160167 -39.663660 3.894775 66.861104 -0.000004 23.775716 0.000012 -3.818369 -17.216655 -8.885021 -6.439871 1.666967 -14.228003 10.926572 -6.574066 -0.534111 0.000000 -0.000001 -0.000000 -0.653476 3.325973 7.744313 0.482688 -2.066510 26.291801 0.000000 0.000000 0.000000 -1.470683 1.785392 17.821873 1.130472 -3.043568 40.745312 -0.000001 -0.000001 -0.000001 -0.209379 -2.474732 21.021077 1.834858 -3.706073 52.667698 -0.000000 0.000001 -0.000003 -2.981104 -10.589130 7.625456 1.498024 -3.423589 47.254455 -0.000000 0.000000 -0.000001 -0.000001 -0.000000 -0.000000 0.000000 0.000000 -0.000000 0.000002 -0.000001 -0.000000 0.000000 0.000000 0.000000 0.000000 0.000000 0.000000 0.000000 0.000000 -0.000000 0.000002 -0.000001 -0.000000 0.000000 0.000000 0.000000 0.000000 0.000000 0.000000 0.000000 0.000000 -0.000000 0.000002 -0.000001 -0.000000 -0.000000 0.000000 -0.000000 -0.000000 0.000000 -0.000000 -0.000000 0.000000 -0.000000 
-2.627221 66.976555 -21.092545 8.543371 -3.574069 4.083698 0.000000 -0.000000 0.000000 -25.394532 5.591304 10.365183 62.906281 4.119964 -0.055033 -20.474764 4.017128 -15.359490 0.000001 -0.000001 0.000000 0.000002 -0.000000 0.000002 -41.135668 -1.688691 14.411834 21.133743 -2.635521 2.857927 -7.586037 -0.817161 -0.998702 0.000001 -0.000000 -0.000001 0.000001 -0.000001 0.000001 11.963952 1.861207 1.457384 10.544689 0.476526 0.070916 10.546144 0.474659 0.060300 7.120868 -3.787979 0.205698 21.744191 -23.105482 15.114906 0.000001 0.000002 -0.000001 0.000001 0.000002 -0.000001 0.000001 0.000002 -0.000001 0.000001 0.000002 -0.000001 0.000000 0.000002 -0.000001 0.000001 0.000002 -0.000001 0.000000 0.000002 -0.000001 0.000001 0.000002 -0.000001 0.000001 0.000002 -0.000001 -0.127369 -11.884606 -19.316373 -12.930052 -3.827778 -47.736926 -0.000000 -34.084290 -0.000018 27.064020 -6.751113 -35.030729 -0.266451 4.548710 10.792699 6.396343 -8.198054 19.623663 0.000004 -0.000000 -0.000001 0.412649 2.697998 -6.558799 0.476052 2.315153 -23.236114 -0.000001 -0.000001 -0.000004 -0.183040 -0.982789 -4.174276 0.545444 2.470398 -24.898036 0.000003 0.000003 0.000001 -0.079417 2.797537 9.109346 2.119207 4.509652 -50.322320 -0.000001 0.000000 0.000002 0.793864 -4.742520 14.569401 1.215774 3.574483 -37.558981 -0.000005 -0.000003 0.000002 -0.000001 -0.000001 -0.000001 0.307672 7.114246 18.535330 -40.778473 6.952307 67.229853 -0.000001 23.515057 0.000001 -6.057999 -20.535811 -11.163317 -6.439872 1.666966 -14.228005 9.661829 -3.671359 -1.672802 0.000000 -0.000001 -0.000001 0.144034 5.413354 2.352989 0.338647 -1.745095 21.962717 0.000000 0.000002 -0.000001 -0.678786 3.611916 6.991057 1.078360 -2.982095 39.753852 0.000001 0.000001 -0.000004 -0.315185 -1.449404 14.415427 1.904248 -3.757867 53.733716 0.000000 -0.000000 0.000001 -2.840918 -9.435349 -6.057516 1.571396 -3.489849 48.471257 -0.000001 -0.000001 0.000002 -0.000000 0.000002 -0.000000 -0.000000 -0.000000 0.000000 -0.000002 0.000000 -0.000000 -0.000000 -0.000000 -0.000000 -0.000000 -0.000000 -0.000000 -0.000000 -0.000000 0.000000 -0.000002 0.000000 -0.000001 -0.000000 -0.000000 -0.000000 -0.000000 -0.000000 -0.000000 -0.000000 -0.000000 0.000000 -0.000002 0.000000 -0.000001 0.000000 -0.000000 0.000000 0.000000 -0.000000 0.000000 0.000000 -0.000000 0.000000 
